<svg width="62" height="66" viewBox="0 0 62 66" fill="none" xmlns="http://www.w3.org/2000/svg">
<path d="M47.1192 32.5578C46.7218 32.2399 46.245 31.975 45.8212 31.6836C45.5298 31.3393 45.1589 31.1008 44.7086 30.9419C41.8742 29.326 38.6689 28.3724 35.4901 28.3724C34.8278 28.3724 34.2186 28.6373 33.7418 29.0876L30.51 32.3459L27.2517 29.1141C26.8014 28.6373 26.1656 28.3989 25.5034 28.3989C22.2981 28.3989 19.0398 29.379 16.2054 31.0214C15.8081 31.1538 15.4902 31.3922 15.2253 31.6836C14.775 31.975 14.2981 32.2399 13.8743 32.5578C10.5631 35.1538 8.02002 38.9419 8.02002 43.3657V50.8623C8.02002 59.1272 14.7485 65.8292 23.0133 65.8292H38.0066C46.2715 65.8292 53 59.1272 53 50.8623V43.3657C52.9735 38.9419 50.4304 35.1538 47.1192 32.5578ZM36.2848 33.6439C37.6093 33.7498 39.0133 34.0147 40.3642 34.518L37.5033 39.3127L34.0596 35.869L36.2848 33.6439ZM26.9868 35.869L23.5431 39.3127L20.6822 34.518C22.0332 34.0412 23.4372 33.7498 24.7617 33.6439L26.9868 35.869ZM47.9934 50.8623C47.9934 56.4252 43.5695 60.8226 38.0066 60.8226H23.0133C17.424 60.8226 13.0266 56.4252 13.0266 50.8623V43.3657C13.0266 41.0876 14.3246 38.8889 16.3908 37.0611L20.8941 44.6372C21.7153 46.0412 23.6491 46.2796 24.8146 45.1405L30.51 39.3922L36.2318 45.114C37.3974 46.2531 39.3046 46.0147 40.1523 44.6107L44.6556 37.0346C46.7218 38.8624 48.0198 41.0611 48.0198 43.3392V50.8623H47.9934Z" fill="#FFB84F"/>
<path d="M30.5101 23.3922C36.6822 23.3922 41.7683 18.3327 41.7683 12.1605C41.7683 5.98835 36.7087 0.928772 30.5101 0.928772C24.3379 0.928772 19.2783 5.98835 19.2783 12.1605C19.2783 18.3327 24.3114 23.3922 30.5101 23.3922ZM30.5101 5.90888C33.9802 5.90888 36.7617 8.69033 36.7617 12.1605C36.7617 15.6307 33.9802 18.4121 30.5101 18.4121C27.0399 18.4121 24.2849 15.6307 24.2849 12.1605C24.2849 8.69033 27.0134 5.90888 30.5101 5.90888Z" fill="#FFB84F"/>
<path d="M40.4968 48.3458H38.0067C34.669 48.3458 34.669 53.3524 38.0067 53.3524H40.4968C43.808 53.3524 43.808 48.3458 40.4968 48.3458Z" fill="#FFB84F"/>
</svg>
