<svg width="56" height="60" viewBox="0 0 56 60" fill="none" xmlns="http://www.w3.org/2000/svg">
<g clip-path="url(#clip0_25_317)">
<path d="M4.02315 46.5H8.0462V55.9929H4.02315C4.13072 55.9929 4.02315 55.9929 4.02315 55.7571V46.7571C4.02315 46.4786 4.13072 46.5 4.02315 46.5ZM14.07 42H30.0331C30.0839 42.835 30.0839 43.6722 30.0331 44.5071C30.069 44.8029 30.0456 45.1029 29.9642 45.3896C29.8828 45.6763 29.745 45.944 29.5589 46.1773C29.3727 46.4105 29.142 46.6046 28.8799 46.7483C28.6179 46.892 28.3298 46.9824 28.0324 47.0143H19.8787C19.3783 47.0854 18.9228 47.3406 18.6019 47.7296C18.281 48.1186 18.118 48.6132 18.145 49.1159C18.172 49.6187 18.387 50.0931 18.7477 50.4458C19.1084 50.7985 19.5887 51.0039 20.0938 51.0214H35.7127C35.8978 51.0539 36.0871 51.0539 36.2721 51.0214L49.8687 47.1214C50.051 47.0457 50.2512 47.0237 50.4457 47.0578C50.6401 47.092 50.8207 47.181 50.9659 47.3143C51.4192 47.6741 51.7437 48.1702 51.891 48.7286C52.1437 49.349 52.1434 50.0431 51.8903 50.6634C51.6372 51.2836 51.1512 51.7811 50.5356 52.05C45.8843 53.6466 41.152 54.9984 36.3581 56.1H12.0477V44.5071C11.9982 43.9108 12.1804 43.3182 12.5567 42.8517C12.933 42.3852 13.4747 42.0803 14.07 42ZM14.07 37.9929C12.7554 38.0355 11.4894 38.498 10.459 39.3121C9.4285 40.1263 8.68821 41.2489 8.34739 42.5143H4.04466C2.94135 42.5534 1.89855 43.0264 1.14455 43.8296C0.390546 44.6328 -0.013231 45.7009 0.0216128 46.8V55.7143C-0.013231 56.8134 0.390546 57.8815 1.14455 58.6847C1.89855 59.4879 2.94135 59.9609 4.04466 60H36.6163C36.7373 60.0208 36.861 60.0208 36.982 60C42.0802 58.8601 47.1084 57.4292 52.0416 55.7143H52.3428C53.7804 54.9919 54.9171 53.789 55.5543 52.3161C56.1914 50.8432 56.2883 49.194 55.828 47.6571C55.4481 46.2358 54.5994 44.983 53.4185 44.1C52.7679 43.6246 52.0156 43.3056 51.2207 43.168C50.4257 43.0305 49.6095 43.0781 48.8361 43.3071L35.5191 47.1429H33.755C34.0645 46.3428 34.2249 45.4931 34.2283 44.6357C34.3216 43.3187 34.2054 41.9952 33.8841 40.7143C33.6888 39.9306 33.2433 39.2313 32.6148 38.7214C31.8987 38.2191 31.0376 37.9633 30.1622 37.9929H14.07ZM26.1177 12.0214V16.0071H21.8149C21.3145 16.0783 20.859 16.3335 20.5381 16.7225C20.2172 17.1115 20.0542 17.606 20.0812 18.1088C20.1082 18.6115 20.3232 19.086 20.684 19.4387C21.0447 19.7914 21.5249 19.9967 22.0301 20.0143H26.0531V24.0214C26.0531 24.55 26.2639 25.0569 26.6391 25.4306C27.0143 25.8043 27.5232 26.0143 28.0539 26.0143C28.5845 26.0143 29.0934 25.8043 29.4686 25.4306C29.8439 25.0569 30.0546 24.55 30.0546 24.0214V20.0143H34.0777C34.3593 20.0433 34.644 20.0132 34.9131 19.9257C35.1823 19.8382 35.4301 19.6955 35.6403 19.5066C35.8506 19.3177 36.0187 19.087 36.1338 18.8293C36.2488 18.5716 36.3083 18.2927 36.3083 18.0107C36.3083 17.7287 36.2488 17.4498 36.1338 17.1921C36.0187 16.9345 35.8506 16.7037 35.6403 16.5148C35.4301 16.326 35.1823 16.1832 34.9131 16.0957C34.644 16.0083 34.3593 15.9781 34.0777 16.0071H30.1622V12.0214C30.1622 11.4929 29.9514 10.986 29.5762 10.6123C29.201 10.2385 28.6921 10.0286 28.1614 10.0286C27.6308 10.0286 27.1219 10.2385 26.7467 10.6123C26.3715 10.986 26.1607 11.4929 26.1607 12.0214H26.1177ZM28.1184 4.00714C31.9895 4.09368 35.8084 4.91553 39.3701 6.42857C40.7413 6.94608 42.0253 7.66865 43.178 8.57143C43.9955 9.3 44.1891 9.83572 44.1891 10.0071C43.7536 14.7387 42.0523 19.2674 39.2625 23.1214C36.6882 27.1978 32.7478 30.2345 28.1399 31.6929C23.5135 30.2485 19.555 27.2097 16.9744 23.1214C14.1894 19.2666 12.4953 14.7373 12.0693 10.0071C12.0693 9.83572 12.2414 9.3 13.0804 8.57143C14.2218 7.66369 15.4996 6.94056 16.8668 6.42857C20.4278 4.91351 24.2471 4.09157 28.1184 4.00714ZM28.1184 0C23.6806 0.0373101 19.2938 0.947597 15.2102 2.67857C13.4658 3.38056 11.8459 4.3573 10.4127 5.57143C9.72196 6.0985 9.15312 6.76741 8.7448 7.53276C8.33648 8.29811 8.09822 9.14199 8.0462 10.0071C8.39804 15.5593 10.3474 20.8932 13.6613 25.3714C17.1034 30.4071 21.9225 34.8214 27.7312 35.9571C27.9853 36.0215 28.2516 36.0215 28.5057 35.9571C34.3143 34.8214 39.1119 30.4071 42.5756 25.3714C45.8895 20.8932 47.8388 15.5593 48.1906 10.0071C48.1429 9.14105 47.9064 8.29569 47.4978 7.52972C47.0891 6.76376 46.518 6.09554 45.8241 5.57143C44.3583 4.3474 42.7014 3.37024 40.919 2.67857C36.8681 0.963468 32.5198 0.0535524 28.1184 0Z" fill="#FFB84F"/>
</g>
<defs>
<clipPath id="clip0_25_317">
<rect width="56" height="60" fill="white"/>
</clipPath>
</defs>
</svg>
