<svg width="55" height="64" viewBox="0 0 55 64" fill="none" xmlns="http://www.w3.org/2000/svg">
<g clip-path="url(#clip0_25_266)">
<path d="M29.5462 32C28.895 32 28.2704 32.2587 27.8099 32.7192C27.3494 33.1797 27.0907 33.8043 27.0907 34.4555C27.0907 35.1068 27.3494 35.7313 27.8099 36.1918C28.2704 36.6523 28.895 36.911 29.5462 36.911H39.3944C40.0456 36.911 40.6702 36.6523 41.1307 36.1918C41.5912 35.7313 41.8499 35.1068 41.8499 34.4555C41.8499 33.8043 41.5912 33.1797 41.1307 32.7192C40.6702 32.2587 40.0456 32 39.3944 32H29.5462ZM5.77477 32C4.25481 32.0136 2.80096 32.6235 1.72614 33.6983C0.651321 34.7731 0.0414648 36.227 0.027832 37.7469V58.2531C0.0414648 59.773 0.651321 61.2269 1.72614 62.3017C2.80096 63.3765 4.25481 63.9864 5.77477 64H46.787C48.7224 63.9284 50.5586 63.1257 51.9256 61.7539C53.2926 60.382 54.0888 58.5429 54.1535 56.6073V43.5461C54.1535 42.8949 53.8948 42.2703 53.4343 41.8098C52.9738 41.3493 52.3493 41.0906 51.698 41.0906C51.0468 41.0906 50.4222 41.3493 49.9617 41.8098C49.5012 42.2703 49.2425 42.8949 49.2425 43.5461V56.6073C49.1147 57.1591 48.8843 57.6819 48.5633 58.1486C48.3651 58.4371 48.1001 58.6733 47.7907 58.837C47.4814 59.0008 47.137 59.0872 46.787 59.089H5.77477C5.66401 59.0926 5.55369 59.0735 5.45063 59.0328C5.34757 58.992 5.25396 58.9306 5.1756 58.8522C5.09724 58.7739 5.0358 58.6803 4.99508 58.5772C4.95435 58.4741 4.93522 58.3638 4.93885 58.2531V37.7469C4.93112 37.6352 4.94743 37.523 4.98671 37.4181C5.02598 37.3132 5.08729 37.2179 5.16651 37.1387C5.24574 37.0595 5.34102 36.9981 5.44595 36.9589C5.55088 36.9196 5.663 36.9033 5.77477 36.911H14.787C15.4383 36.911 16.0628 36.6523 16.5233 36.1918C16.9838 35.7313 17.2425 35.1068 17.2425 34.4555C17.2425 33.8043 16.9838 33.1797 16.5233 32.7192C16.0628 32.2587 15.4383 32 14.787 32H5.77477Z" fill="#FFB84F"/>
<path d="M45.5584 43.0759C43.2787 43.0828 41.094 43.9896 39.4796 45.5991C37.8652 47.2086 36.9518 49.3906 36.938 51.6702C37.1156 52.1835 37.4489 52.6286 37.8913 52.9437C38.3338 53.2588 38.8634 53.4281 39.4066 53.4281C39.9497 53.4281 40.4794 53.2588 40.9218 52.9437C41.3642 52.6286 41.6975 52.1835 41.8751 51.6702C41.8751 50.6934 42.2632 49.7565 42.9539 49.0658C43.6447 48.375 44.5815 47.987 45.5584 47.987C46.5353 47.987 47.4721 48.375 48.1629 49.0658C48.8536 49.7565 49.2417 50.6934 49.2417 51.6702C49.2417 52.3215 49.5004 52.946 49.9609 53.4065C50.4214 53.867 51.0459 54.1257 51.6972 54.1257C52.3484 54.1257 52.973 53.867 53.4335 53.4065C53.894 52.946 54.1527 52.3215 54.1527 51.6702C54.139 49.3951 53.2291 47.2171 51.6203 45.6083C50.0115 43.9995 47.8335 43.0896 45.5584 43.0759Z" fill="#FFB84F"/>
<path d="M45.5584 24.6072C43.2649 24.6278 41.0725 25.5534 39.458 27.1825C37.8436 28.8116 36.9379 31.0124 36.938 33.306V51.5917C37.1156 52.105 37.4489 52.5501 37.8913 52.8652C38.3338 53.1802 38.8634 53.3495 39.4066 53.3495C39.9497 53.3495 40.4794 53.1802 40.9218 52.8652C41.3642 52.5501 41.6975 52.105 41.8751 51.5917V33.306C41.8751 32.3291 42.2632 31.3922 42.9539 30.7015C43.6447 30.0107 44.5815 29.6227 45.5584 29.6227C46.5353 29.6227 47.4721 30.0107 48.1629 30.7015C48.8536 31.3922 49.2417 32.3291 49.2417 33.306V49.2407C49.2417 49.8919 49.5004 50.5165 49.9609 50.977C50.4214 51.4375 51.0459 51.6962 51.6972 51.6962C52.3484 51.6962 52.973 51.4375 53.4335 50.977C53.894 50.5165 54.1527 49.8919 54.1527 49.2407V33.306C54.1528 31.0169 53.2507 28.82 51.6419 27.1916C50.0331 25.5633 47.8473 24.6347 45.5584 24.6072Z" fill="#FFB84F"/>
<path d="M22.3617 4.91102C24.009 4.8972 25.6426 5.21017 27.1682 5.83181C28.6938 6.45345 30.0809 7.37143 31.2494 8.53263C32.4179 9.69384 33.3445 11.0752 33.9757 12.5969C34.6069 14.1185 34.9301 15.7502 34.9266 17.3976C34.634 19.7722 33.8891 22.0689 32.7323 24.1633C31.2639 27.1231 29.6061 29.9852 27.769 32.7314C25.1568 36.8588 23.5894 38.6612 22.3617 40.2286C20.4243 37.8234 18.6108 35.3212 16.9282 32.7314C15.1005 29.9793 13.443 27.1179 11.9649 24.1633C10.8561 22.1032 10.147 19.8519 9.87513 17.5282C9.85081 15.8755 10.1562 14.2347 10.7735 12.7014C11.3907 11.1682 12.3075 9.77346 13.4701 8.59869C14.6327 7.42392 16.0178 6.49272 17.5445 5.85953C19.0713 5.22635 20.7089 4.9039 22.3617 4.91102ZM22.3617 0C17.7473 0.00688714 13.3234 1.84122 10.0581 5.10165C6.79277 8.36209 4.9518 12.7832 4.93799 17.3976C5.16174 20.4781 6.05311 23.4731 7.55023 26.1747C9.10991 29.3143 10.8545 32.3585 12.7747 35.2914C16.6147 41.0906 20.4025 45.7404 20.4025 45.7404C20.6325 46.0289 20.9245 46.2618 21.2569 46.4219C21.5893 46.582 21.9535 46.6652 22.3225 46.6652C22.6914 46.6652 23.0556 46.582 23.388 46.4219C23.7204 46.2618 24.0125 46.0289 24.2425 45.7404C24.2425 45.7404 28.0302 40.9861 31.8441 35.2914C33.783 32.37 35.5282 29.3245 37.0686 26.1747C38.5776 23.4781 39.4697 20.4804 39.6808 17.3976C39.6672 12.8012 37.8406 8.39579 34.5978 5.13832C31.355 1.88085 26.9579 0.034384 22.3617 0Z" fill="#FFB84F"/>
<path d="M2.48334 41.8481C1.8321 41.8481 1.20753 42.1069 0.747034 42.5673C0.286537 43.0278 0.027832 43.6524 0.027832 44.3037C0.027832 44.9549 0.286537 45.5795 0.747034 46.04C1.20753 46.5005 1.8321 46.7592 2.48334 46.7592H21.1609L27.0907 52.7151V61.5445C27.2683 62.0578 27.6016 62.5029 28.044 62.818C28.4865 63.133 29.0161 63.3023 29.5593 63.3023C30.1024 63.3023 30.6321 63.133 31.0745 62.818C31.517 62.5029 31.8502 62.0578 32.0278 61.5445V51.6702C32.0055 51.0248 31.7449 50.4106 31.2964 49.9461L23.9037 42.449C23.444 41.9965 22.8247 41.7432 22.1797 41.7437L2.48334 41.8481Z" fill="#FFB84F"/>
<path d="M22.3604 14.7592C23.094 14.7592 23.8112 14.9768 24.4212 15.3843C25.0312 15.7919 25.5067 16.3713 25.7874 17.0491C26.0682 17.7269 26.1416 18.4727 25.9985 19.1923C25.8554 19.9118 25.5021 20.5728 24.9833 21.0915C24.4646 21.6103 23.8036 21.9636 23.0841 22.1067C22.3645 22.2498 21.6187 22.1764 20.9409 21.8956C20.2631 21.6149 19.6838 21.1394 19.2762 20.5294C18.8686 19.9194 18.651 19.2022 18.651 18.4686C18.644 17.9795 18.7351 17.494 18.919 17.0408C19.103 16.5876 19.3759 16.1758 19.7218 15.83C20.0676 15.4841 20.4794 15.2111 20.9326 15.0272C21.3858 14.8433 21.8713 14.7522 22.3604 14.7592ZM22.3604 9.84818C20.6543 9.84301 18.9851 10.3442 17.5641 11.2883C16.143 12.2323 15.034 13.5769 14.3776 15.1516C13.7211 16.7263 13.5467 18.4604 13.8763 20.1343C14.206 21.8082 15.0249 23.3466 16.2295 24.5548C17.434 25.763 18.97 26.5867 20.6429 26.9214C22.3158 27.2561 24.0504 27.087 25.6271 26.4353C27.2038 25.7836 28.5517 24.6787 29.5001 23.2605C30.4484 21.8424 30.9547 20.1747 30.9547 18.4686C30.9478 16.1889 30.041 14.0042 28.4315 12.3898C26.822 10.7754 24.64 9.86195 22.3604 9.84818Z" fill="#FFB84F"/>
<path d="M14.7575 41.7959C14.0969 41.8423 13.4785 42.1378 13.0275 42.6228C12.5765 43.1077 12.3265 43.7459 12.3281 44.4081V61.649C12.3281 62.3002 12.5868 62.9248 13.0473 63.3853C13.5078 63.8458 14.1324 64.1045 14.7836 64.1045C15.4349 64.1045 16.0595 63.8458 16.52 63.3853C16.9804 62.9248 17.2392 62.3002 17.2392 61.649V44.4081C17.24 43.7374 16.9828 43.092 16.5208 42.6057C16.0588 42.1194 15.4274 41.8294 14.7575 41.7959Z" fill="#FFB84F"/>
</g>
<defs>
<clipPath id="clip0_25_266">
<rect width="54.1518" height="64" fill="white"/>
</clipPath>
</defs>
</svg>
