<svg width="61" height="61" viewBox="0 0 61 61" fill="none" xmlns="http://www.w3.org/2000/svg">
<path d="M6.8868 13.0569L14.3484 6.18141C14.6119 5.93714 14.9212 5.74771 15.2583 5.62413C15.5955 5.50054 15.9538 5.44525 16.3124 5.46147C16.6711 5.4777 17.0229 5.56511 17.3476 5.71863C17.6722 5.87215 17.9632 6.08873 18.2036 6.35579L23.3521 12.0605C23.1034 12.3843 22.3324 13.1317 21.3375 14.3772L18.2782 18.388C18.1977 18.4865 18.1308 18.5954 18.0792 18.7118C17.2299 20.2116 16.7007 21.8717 16.5252 23.5869C16.3497 25.3021 16.5316 27.0352 17.0595 28.6764C18.2699 31.9907 20.1883 35.0003 22.6806 37.495C24.9751 40.1905 27.8844 42.2925 31.162 43.6232C32.7064 44.2351 34.3744 44.4684 36.0271 44.3038C37.6798 44.1391 39.2693 43.5812 40.6631 42.6765L44.8914 39.9114C46.2096 39.0395 47.0303 38.317 47.3786 38.0928L52.5271 43.6979C52.7756 43.9585 52.9694 44.2666 53.0967 44.6036C53.2241 44.9407 53.2826 45.3 53.2687 45.6602C53.2548 46.0203 53.1688 46.374 53.0157 46.7002C52.8627 47.0264 52.6458 47.3185 52.3778 47.5592L44.9162 54.4596C42.8021 56.3778 38.4495 56.5771 33.6492 55.1322C29.1158 53.7824 24.9709 51.3651 21.5613 48.0823L11.2643 36.9967C8.28489 33.3159 6.22183 28.9783 5.24525 24.3418C4.22549 19.4342 4.77268 15.0997 6.8868 13.0569ZM3.70318 9.71882C-0.375846 13.4555 -0.549949 19.6834 0.643911 25.3133C1.73351 30.8214 4.1978 35.9634 7.80707 40.2601L18.0295 51.4204C21.9767 55.3735 26.8644 58.2542 32.2315 59.7906C37.8028 61.4846 43.9213 61.8084 48.0004 58.0468L55.462 51.1713C56.9054 49.8321 57.7622 47.9761 57.8461 46.0073C57.9299 44.0385 57.234 42.1161 55.9097 40.6587L50.8607 35.0537C50.2153 34.2731 49.3476 33.7083 48.3734 33.4344C47.4104 33.2471 46.4124 33.3874 45.538 33.833C44.422 34.4868 43.365 35.237 42.3793 36.075L38.1759 38.8651C37.4053 39.3898 36.5118 39.7047 35.583 39.7789C34.6542 39.8532 33.722 39.6842 32.8781 39.2886C30.3049 38.1605 28.0244 36.456 26.2124 34.3063C24.2084 32.286 22.6493 29.8675 21.636 27.2066C21.2606 26.1821 21.1193 25.0863 21.2226 23.9999C21.3259 22.9134 21.6711 21.8641 22.2329 20.9289L25.1927 17.2171C26.1027 16.2911 26.9346 15.2913 27.6799 14.2278C28.1925 13.3935 28.4114 12.4112 28.3017 11.4377C28.1276 10.4178 27.6408 9.47747 26.9088 8.74728L21.6608 3.26679C20.3237 1.82114 18.4707 0.962936 16.505 0.878958C14.5392 0.794979 12.6199 1.49202 11.1648 2.81838L3.70318 9.71882Z" fill="#FFB84F"/>
<path d="M7.38445 6.25616C6.97197 6.71391 6.74365 7.30861 6.74365 7.92522C6.74365 8.54184 6.97197 9.13654 7.38445 9.59428L17.6815 20.8293C18.1229 21.2599 18.7082 21.511 19.324 21.534C19.9397 21.557 20.5421 21.3503 21.0144 20.9539C21.2418 20.7464 21.4261 20.496 21.5567 20.217C21.6873 19.9381 21.7617 19.6361 21.7755 19.3283C21.7894 19.0205 21.7425 18.713 21.6375 18.4234C21.5325 18.1338 21.3714 17.8678 21.1636 17.6406L10.7422 6.40563C10.5344 6.1704 10.2815 5.97944 9.9985 5.84411C9.71551 5.70879 9.40824 5.63186 9.09496 5.61792C8.78168 5.60397 8.4688 5.65329 8.17495 5.76294C7.88109 5.87259 7.61226 6.04032 7.38445 6.25616Z" fill="#FFB84F"/>
<path d="M38.301 39.9114C37.8885 40.3692 37.6602 40.9639 37.6602 41.5805C37.6602 42.1971 37.8885 42.7918 38.301 43.2495L48.6229 54.4845C49.045 54.9437 49.6321 55.2161 50.2548 55.2418C50.8775 55.2675 51.4848 55.0444 51.9433 54.6216C52.4018 54.1987 52.6737 53.6108 52.6994 52.9871C52.725 52.3634 52.5023 51.7551 52.0801 51.2959L41.6587 40.0609C41.4509 39.8256 41.198 39.6347 40.915 39.4994C40.632 39.364 40.3247 39.2871 40.0115 39.2732C39.6982 39.2592 39.3853 39.3085 39.0915 39.4182C38.7976 39.5278 38.5288 39.6956 38.301 39.9114Z" fill="#FFB84F"/>
<path d="M39.5408 10.5658C39.1983 10.8829 38.9584 11.2953 38.8519 11.75C38.7453 12.2047 38.777 12.681 38.9428 13.1176C39.1086 13.5542 39.4009 13.9311 39.7823 14.1999C40.1636 14.4688 40.6166 14.6173 41.0828 14.6263C42.5521 14.6974 43.9336 15.3475 44.9261 16.4349C45.9185 17.5223 46.4414 18.9586 46.3806 20.4306C46.3692 20.7382 46.4183 21.0449 46.5252 21.3334C46.6322 21.6219 46.7948 21.8864 47.0038 22.112C47.2128 22.3375 47.4641 22.5196 47.7434 22.6479C48.0227 22.7761 48.3245 22.848 48.6315 22.8595C48.9385 22.8709 49.2448 22.8217 49.5328 22.7146C49.8209 22.6075 50.085 22.4446 50.3102 22.2353C50.5354 22.0259 50.7172 21.7742 50.8453 21.4945C50.9733 21.2148 51.0451 20.9125 51.0565 20.605C51.1414 19.2303 50.9471 17.8527 50.4854 16.5554C50.0237 15.258 49.3042 14.0679 48.3704 13.0569C46.5244 11.0649 43.968 9.88312 41.2569 9.76859C40.6024 9.79754 39.9857 10.084 39.5408 10.5658Z" fill="#FFB84F"/>
<path d="M39.7926 0.775716C39.4919 1.10912 39.2932 1.52216 39.2204 1.96553C39.1476 2.40891 39.2037 2.8639 39.382 3.27622C39.5603 3.68853 39.8533 4.04076 40.226 4.29088C40.5987 4.541 41.0354 4.67843 41.4839 4.6868C43.5085 4.77003 45.4967 5.25273 47.3347 6.10722C49.1726 6.9617 50.824 8.17115 52.1943 9.66623C53.5645 11.1613 54.6266 12.9126 55.3197 14.8197C56.0128 16.7267 56.3232 18.7521 56.2331 20.7795C56.1983 21.4243 56.4149 22.0574 56.8371 22.5454C57.2593 23.0333 57.8543 23.338 58.4964 23.3952C59.1561 23.3952 59.7887 23.1328 60.2552 22.6656C60.7216 22.1984 60.9836 21.5648 60.9836 20.9041C61.0935 18.2587 60.6799 15.6177 59.7667 13.1331C58.8534 10.6485 57.4586 8.36927 55.6624 6.4267C53.8662 4.48413 51.7042 2.91655 49.3007 1.81418C46.8973 0.711819 44.2999 0.0964391 41.658 0.00346393C41.3092 -0.0155575 40.9606 0.0439371 40.6378 0.177576C40.315 0.311215 40.0262 0.515602 39.7926 0.775716Z" fill="#FFB84F"/>
<path d="M35.4358 21.8258C35.2088 22.0351 35.0252 22.2872 34.8955 22.5677C34.7657 22.8481 34.6924 23.1514 34.6797 23.4602C34.667 23.769 34.7152 24.0773 34.8214 24.3675C34.9277 24.6577 35.09 24.9241 35.299 25.1514C35.508 25.3788 35.7598 25.5627 36.0398 25.6926C36.3197 25.8226 36.6226 25.896 36.9309 25.9087C37.2392 25.9214 37.547 25.8732 37.8368 25.7668C38.1265 25.6603 38.3924 25.4978 38.6194 25.2884L40.4848 23.5696C40.9433 23.1467 41.2153 22.5588 41.2409 21.9351C41.2666 21.3114 41.0438 20.7031 40.6216 20.2439C40.1995 19.7847 39.6125 19.5123 38.9898 19.4866C38.3671 19.4609 37.7597 19.684 37.3012 20.1069L35.4358 21.8258Z" fill="#FFB84F"/>
</svg>
