<svg width="32" height="32" viewBox="0 0 32 32" fill="none" xmlns="http://www.w3.org/2000/svg">
<path d="M21.2704 15.9226C21.1383 15.8169 20.9797 15.7288 20.8388 15.6319C20.7419 15.5174 20.6186 15.4381 20.4688 15.3852C19.5263 14.8479 18.4604 14.5308 17.4033 14.5308C17.1831 14.5308 16.9805 14.6189 16.822 14.7686L15.7473 15.8521L14.6638 14.7774C14.514 14.6189 14.3026 14.5396 14.0824 14.5396C13.0165 14.5396 11.933 14.8655 10.9905 15.4116C10.8584 15.4557 10.7527 15.535 10.6646 15.6319C10.5148 15.7288 10.3563 15.8169 10.2153 15.9226C9.1142 16.7858 8.26855 18.0455 8.26855 19.5166V22.0095C8.26855 24.7578 10.506 26.9865 13.2544 26.9865H18.2402C20.9885 26.9865 23.226 24.7578 23.226 22.0095V19.5166C23.2172 18.0455 22.3715 16.7858 21.2704 15.9226ZM17.6676 16.2837C18.108 16.319 18.5749 16.407 19.0242 16.5744L18.0728 18.1688L16.9277 17.0237L17.6676 16.2837ZM14.5757 17.0237L13.4305 18.1688L12.4792 16.5744C12.9284 16.4159 13.3953 16.319 13.8358 16.2837L14.5757 17.0237ZM21.5611 22.0095C21.5611 23.8593 20.09 25.3216 18.2402 25.3216H13.2544C11.3957 25.3216 9.93343 23.8593 9.93343 22.0095V19.5166C9.93343 18.759 10.3651 18.0279 11.0522 17.4201L12.5497 19.9394C12.8227 20.4063 13.4658 20.4855 13.8534 20.1068L15.7473 18.1952L17.65 20.098C18.0376 20.4767 18.6718 20.3975 18.9537 19.9306L20.4512 17.4113C21.1383 18.0191 21.5699 18.7502 21.5699 19.5078V22.0095H21.5611Z" fill="#FFB84F"/>
<path d="M15.7476 12.8747C17.8001 12.8747 19.4914 11.1922 19.4914 9.13974C19.4914 7.08728 17.8089 5.40479 15.7476 5.40479C13.6952 5.40479 12.0127 7.08728 12.0127 9.13974C12.0127 11.1922 13.6864 12.8747 15.7476 12.8747ZM15.7476 7.06085C16.9016 7.06085 17.8265 7.98578 17.8265 9.13974C17.8265 10.2937 16.9016 11.2186 15.7476 11.2186C14.5937 11.2186 13.6776 10.2937 13.6776 9.13974C13.6776 7.98578 14.5849 7.06085 15.7476 7.06085Z" fill="#FFB84F"/>
<path d="M19.0677 21.1726H18.2397C17.1297 21.1726 17.1297 22.8375 18.2397 22.8375H19.0677C20.1688 22.8375 20.1688 21.1726 19.0677 21.1726Z" fill="#FFB84F"/>
</svg>
